<?xml version="1.0" encoding="iso-8859-1"?>
<!-- Generator: Adobe Illustrator 19.0.0, SVG Export Plug-In . SVG Version: 6.00 Build 0)  -->
<svg version="1.1" id="Capa_1" xmlns="http://www.w3.org/2000/svg" xmlns:xlink="http://www.w3.org/1999/xlink" x="0px" y="0px"
	 viewBox="0 0 512 512" style="enable-background:new 0 0 512 512;" xml:space="preserve">
<path style="fill:#D8CFBC;" d="M175.424,101.32h319.537c-0.268-26.941-19.674-46.194-43.585-46.194H131.838
	C155.75,55.126,175.156,74.379,175.424,101.32z"/>
<path style="fill:#F2EBDA;" d="M407.694,98.724c0-24.079,19.52-43.598,43.598-43.598H131.755c-24.079,0-43.598,19.519-43.598,43.598
	v358.149h275.939c24.079,0,43.598-19.519,43.598-43.598V98.724z"/>
<g>
	<path style="fill:#E2D9C5;" d="M397.292,55.126c-24.078,0-43.598,19.52-43.598,43.598v314.552
		c0,24.078-19.519,43.598-43.598,43.598h54c24.079,0,43.598-19.52,43.598-43.598V98.724c0-24.078,19.52-43.598,43.598-43.598
		H397.292z"/>
	<path style="fill:#E2D9C5;" d="M319.537,410.68H0c0.268,26.941,19.674,46.194,43.585,46.194h319.537
		C339.211,456.874,319.805,437.621,319.537,410.68z"/>
</g>
<path style="fill:#A3D8A3;" d="M290.201,328.074c8.974-27.903,17.045-56.401,36.111-78.167
	C367.96,202.363,451.445,188.395,512,189.955c-18.947,15.645-35.464,31.469-54.605,52.184
	c-21.459,23.224-68.281,54.127-90.814,61.057C331.486,313.988,315.25,315.793,290.201,328.074z"/>
<path style="fill:#87C489;" d="M290.201,328.074C299.175,300.171,451.445,188.395,512,189.955
	c-18.947,15.645-35.464,31.469-54.605,52.184c-21.459,23.224-68.281,54.127-90.814,61.057
	C331.486,313.988,315.25,315.793,290.201,328.074z"/>
<path style="fill:#69B96D;" d="M251.447,380.927c0,0,7.146-23.744,8.448-25.832c7.133-11.441,14.653-19.388,23.989-30.564
	c32.249-38.611,137.961-106.262,139.936-102.475c1.975,3.786-98.247,72.439-129.182,109.476
	c-8.649,10.355-15.056,20.648-21.99,31.771C271.32,365.43,251.447,380.927,251.447,380.927z"/>
<path style="fill:#FF801D;" d="M365.916,148.561H146.084c-4.142,0-7.5-3.357-7.5-7.5s3.358-7.5,7.5-7.5h219.832
	c4.142,0,7.5,3.357,7.5,7.5S370.058,148.561,365.916,148.561z"/>
<path style="fill:#EFB635;" d="M224.526,378.439h-78.442c-4.142,0-7.5-3.357-7.5-7.5s3.358-7.5,7.5-7.5h78.442
	c4.142,0,7.5,3.357,7.5,7.5S228.668,378.439,224.526,378.439z"/>
<path style="fill:#FF801D;" d="M256,301.813H146.084c-4.142,0-7.5-3.357-7.5-7.5s3.358-7.5,7.5-7.5H256c4.142,0,7.5,3.357,7.5,7.5
	S260.142,301.813,256,301.813z"/>
<path style="fill:#EFB635;" d="M309.505,225.188H146.084c-4.142,0-7.5-3.357-7.5-7.5s3.358-7.5,7.5-7.5h163.421
	c4.142,0,7.5,3.357,7.5,7.5S313.647,225.188,309.505,225.188z"/>
<g>
</g>
<g>
</g>
<g>
</g>
<g>
</g>
<g>
</g>
<g>
</g>
<g>
</g>
<g>
</g>
<g>
</g>
<g>
</g>
<g>
</g>
<g>
</g>
<g>
</g>
<g>
</g>
<g>
</g>
</svg>
